<mxfile host="app.diagrams.net" agent="Mozilla/5.0 (Windows NT 10.0; Win64; x64) AppleWebKit/537.36 (KHTML, like Gecko) Chrome/135.0.0.0 Safari/537.36" version="26.2.14">
  <diagram name="Page-1" id="2YBvvXClWsGukQMizWep">
    <mxGraphModel dx="2316" dy="1249" grid="1" gridSize="10" guides="1" tooltips="1" connect="1" arrows="1" fold="1" page="1" pageScale="1" pageWidth="850" pageHeight="1100" math="0" shadow="0">
      <root>
        <mxCell id="0" />
        <mxCell id="1" parent="0" />
        <mxCell id="RgWtKV6pRvhlddBNpmQD-1" value="Systeme" style="shape=umlLifeline;perimeter=lifelinePerimeter;whiteSpace=wrap;html=1;container=0;dropTarget=0;collapsible=0;recursiveResize=0;outlineConnect=0;portConstraint=eastwest;newEdgeStyle={&quot;edgeStyle&quot;:&quot;elbowEdgeStyle&quot;,&quot;elbow&quot;:&quot;vertical&quot;,&quot;curved&quot;:0,&quot;rounded&quot;:0};" vertex="1" parent="1">
          <mxGeometry x="480" y="188" width="100" height="852" as="geometry" />
        </mxCell>
        <mxCell id="RgWtKV6pRvhlddBNpmQD-2" value="" style="html=1;points=[];perimeter=orthogonalPerimeter;outlineConnect=0;targetShapes=umlLifeline;portConstraint=eastwest;newEdgeStyle={&quot;edgeStyle&quot;:&quot;elbowEdgeStyle&quot;,&quot;elbow&quot;:&quot;vertical&quot;,&quot;curved&quot;:0,&quot;rounded&quot;:0};" vertex="1" parent="RgWtKV6pRvhlddBNpmQD-1">
          <mxGeometry x="45" y="259" width="10" height="40" as="geometry" />
        </mxCell>
        <mxCell id="RgWtKV6pRvhlddBNpmQD-3" value="1 : Sélectionner une demande a modifier" style="html=1;verticalAlign=bottom;endArrow=block;edgeStyle=elbowEdgeStyle;elbow=vertical;curved=0;rounded=0;" edge="1" parent="1" target="RgWtKV6pRvhlddBNpmQD-2">
          <mxGeometry relative="1" as="geometry">
            <mxPoint x="320" y="447" as="sourcePoint" />
            <Array as="points">
              <mxPoint x="435" y="447" />
            </Array>
            <mxPoint x="520" y="447" as="targetPoint" />
          </mxGeometry>
        </mxCell>
        <mxCell id="RgWtKV6pRvhlddBNpmQD-4" value="Personnel" style="shape=umlActor;verticalLabelPosition=bottom;verticalAlign=top;html=1;outlineConnect=0;" vertex="1" parent="1">
          <mxGeometry x="305" y="168" width="30" height="60" as="geometry" />
        </mxCell>
        <mxCell id="RgWtKV6pRvhlddBNpmQD-5" value="" style="endArrow=none;dashed=1;html=1;rounded=0;" edge="1" parent="1">
          <mxGeometry width="50" height="50" relative="1" as="geometry">
            <mxPoint x="320" y="1041.3714425223213" as="sourcePoint" />
            <mxPoint x="320" y="248" as="targetPoint" />
          </mxGeometry>
        </mxCell>
        <mxCell id="RgWtKV6pRvhlddBNpmQD-8" value="2: Clique sur boutton Modifier" style="html=1;verticalAlign=bottom;endArrow=block;edgeStyle=elbowEdgeStyle;elbow=vertical;curved=0;rounded=0;" edge="1" parent="1">
          <mxGeometry relative="1" as="geometry">
            <mxPoint x="321" y="489" as="sourcePoint" />
            <Array as="points">
              <mxPoint x="436" y="489" />
            </Array>
            <mxPoint x="526" y="489" as="targetPoint" />
          </mxGeometry>
        </mxCell>
        <mxCell id="RgWtKV6pRvhlddBNpmQD-9" value="" style="endArrow=classic;html=1;rounded=0;dashed=1;" edge="1" parent="1">
          <mxGeometry width="50" height="50" relative="1" as="geometry">
            <mxPoint x="526" y="528" as="sourcePoint" />
            <mxPoint x="321" y="528" as="targetPoint" />
          </mxGeometry>
        </mxCell>
        <mxCell id="RgWtKV6pRvhlddBNpmQD-10" value="3: Afficher Formulaire du modification" style="text;html=1;align=center;verticalAlign=middle;resizable=0;points=[];autosize=1;strokeColor=none;fillColor=none;" vertex="1" parent="1">
          <mxGeometry x="315" y="503" width="220" height="30" as="geometry" />
        </mxCell>
        <mxCell id="RgWtKV6pRvhlddBNpmQD-11" value="" style="rounded=0;whiteSpace=wrap;html=1;" vertex="1" parent="1">
          <mxGeometry x="525" y="489" width="10" height="40" as="geometry" />
        </mxCell>
        <mxCell id="RgWtKV6pRvhlddBNpmQD-12" value="4: Saisir les données&amp;nbsp;" style="html=1;verticalAlign=bottom;endArrow=block;edgeStyle=elbowEdgeStyle;elbow=vertical;curved=0;rounded=0;" edge="1" parent="1">
          <mxGeometry relative="1" as="geometry">
            <mxPoint x="320" y="560" as="sourcePoint" />
            <Array as="points">
              <mxPoint x="435" y="560" />
            </Array>
            <mxPoint x="525" y="560" as="targetPoint" />
          </mxGeometry>
        </mxCell>
        <mxCell id="RgWtKV6pRvhlddBNpmQD-13" value="" style="rounded=0;whiteSpace=wrap;html=1;" vertex="1" parent="1">
          <mxGeometry x="525" y="560" width="10" height="40" as="geometry" />
        </mxCell>
        <mxCell id="RgWtKV6pRvhlddBNpmQD-14" value="5: Cliquer dur boutton&amp;nbsp;" style="html=1;verticalAlign=bottom;endArrow=block;edgeStyle=elbowEdgeStyle;elbow=vertical;curved=0;rounded=0;" edge="1" parent="1">
          <mxGeometry relative="1" as="geometry">
            <mxPoint x="320" y="602" as="sourcePoint" />
            <Array as="points">
              <mxPoint x="435" y="602" />
            </Array>
            <mxPoint x="525" y="602" as="targetPoint" />
          </mxGeometry>
        </mxCell>
        <mxCell id="RgWtKV6pRvhlddBNpmQD-17" value="" style="rounded=0;whiteSpace=wrap;html=1;" vertex="1" parent="1">
          <mxGeometry x="525" y="602" width="10" height="40" as="geometry" />
        </mxCell>
        <mxCell id="RgWtKV6pRvhlddBNpmQD-24" value="ref" style="shape=umlFrame;whiteSpace=wrap;html=1;pointerEvents=0;movable=0;resizable=0;rotatable=0;deletable=0;editable=0;locked=1;connectable=0;" vertex="1" parent="1">
          <mxGeometry x="255" y="275" width="685" height="40" as="geometry" />
        </mxCell>
        <mxCell id="RgWtKV6pRvhlddBNpmQD-25" value="S&#39;authentifier" style="text;html=1;align=center;verticalAlign=middle;resizable=0;points=[];autosize=1;strokeColor=none;fillColor=none;movable=0;rotatable=0;deletable=0;editable=0;locked=1;connectable=0;" vertex="1" parent="1">
          <mxGeometry x="372" y="280" width="90" height="30" as="geometry" />
        </mxCell>
        <mxCell id="RgWtKV6pRvhlddBNpmQD-26" value="&lt;font style=&quot;font-size: 10px;&quot;&gt;Modifier demandes&lt;/font&gt;" style="shape=umlFrame;whiteSpace=wrap;html=1;pointerEvents=0;" vertex="1" parent="1">
          <mxGeometry x="170" y="120" width="880" height="1000" as="geometry" />
        </mxCell>
        <mxCell id="RgWtKV6pRvhlddBNpmQD-27" value="Controlleur" style="shape=umlLifeline;perimeter=lifelinePerimeter;whiteSpace=wrap;html=1;container=0;dropTarget=0;collapsible=0;recursiveResize=0;outlineConnect=0;portConstraint=eastwest;newEdgeStyle={&quot;edgeStyle&quot;:&quot;elbowEdgeStyle&quot;,&quot;elbow&quot;:&quot;vertical&quot;,&quot;curved&quot;:0,&quot;rounded&quot;:0};" vertex="1" parent="1">
          <mxGeometry x="640" y="190" width="100" height="850" as="geometry" />
        </mxCell>
        <mxCell id="RgWtKV6pRvhlddBNpmQD-29" value="Base de données" style="shape=umlLifeline;perimeter=lifelinePerimeter;whiteSpace=wrap;html=1;container=0;dropTarget=0;collapsible=0;recursiveResize=0;outlineConnect=0;portConstraint=eastwest;newEdgeStyle={&quot;edgeStyle&quot;:&quot;elbowEdgeStyle&quot;,&quot;elbow&quot;:&quot;vertical&quot;,&quot;curved&quot;:0,&quot;rounded&quot;:0};" vertex="1" parent="1">
          <mxGeometry x="800" y="190" width="100" height="850" as="geometry" />
        </mxCell>
        <mxCell id="RgWtKV6pRvhlddBNpmQD-33" value="ref" style="shape=umlFrame;whiteSpace=wrap;html=1;pointerEvents=0;movable=1;resizable=1;rotatable=1;deletable=1;editable=1;locked=0;connectable=1;" vertex="1" parent="1">
          <mxGeometry x="256" y="334" width="685" height="40" as="geometry" />
        </mxCell>
        <mxCell id="RgWtKV6pRvhlddBNpmQD-34" value="Consulter Demandes" style="text;html=1;align=center;verticalAlign=middle;resizable=1;points=[];autosize=1;strokeColor=none;fillColor=none;movable=1;rotatable=1;deletable=1;editable=1;locked=0;connectable=1;" vertex="1" parent="1">
          <mxGeometry x="348" y="339" width="140" height="30" as="geometry" />
        </mxCell>
        <mxCell id="RgWtKV6pRvhlddBNpmQD-35" value="alt" style="shape=umlFrame;whiteSpace=wrap;html=1;pointerEvents=0;" vertex="1" parent="1">
          <mxGeometry x="233" y="650" width="727" height="410" as="geometry" />
        </mxCell>
        <mxCell id="RgWtKV6pRvhlddBNpmQD-36" value="[Button = annuler]" style="text;html=1;align=center;verticalAlign=middle;resizable=0;points=[];autosize=1;strokeColor=none;fillColor=none;" vertex="1" parent="1">
          <mxGeometry x="260" y="710" width="120" height="30" as="geometry" />
        </mxCell>
        <mxCell id="RgWtKV6pRvhlddBNpmQD-37" value="" style="endArrow=classic;html=1;rounded=0;dashed=1;" edge="1" parent="1">
          <mxGeometry width="50" height="50" relative="1" as="geometry">
            <mxPoint x="529.5000000000002" y="756" as="sourcePoint" />
            <mxPoint x="320" y="756" as="targetPoint" />
          </mxGeometry>
        </mxCell>
        <mxCell id="RgWtKV6pRvhlddBNpmQD-38" value="6: Modification annulée" style="text;html=1;align=center;verticalAlign=middle;resizable=0;points=[];autosize=1;strokeColor=none;fillColor=none;" vertex="1" parent="1">
          <mxGeometry x="347" y="750" width="150" height="30" as="geometry" />
        </mxCell>
        <mxCell id="RgWtKV6pRvhlddBNpmQD-39" value="[Button = enregistrer]" style="text;html=1;align=center;verticalAlign=middle;resizable=0;points=[];autosize=1;strokeColor=none;fillColor=none;" vertex="1" parent="1">
          <mxGeometry x="240" y="817" width="140" height="30" as="geometry" />
        </mxCell>
        <mxCell id="RgWtKV6pRvhlddBNpmQD-42" value="" style="endArrow=none;dashed=1;html=1;rounded=0;exitX=0.012;exitY=0.63;exitDx=0;exitDy=0;exitPerimeter=0;entryX=1.005;entryY=0.418;entryDx=0;entryDy=0;entryPerimeter=0;dashPattern=8 8;" edge="1" parent="1" target="RgWtKV6pRvhlddBNpmQD-35">
          <mxGeometry width="50" height="50" relative="1" as="geometry">
            <mxPoint x="232.99999999999991" y="820.8000000000001" as="sourcePoint" />
            <mxPoint x="572.92" y="820" as="targetPoint" />
          </mxGeometry>
        </mxCell>
        <mxCell id="RgWtKV6pRvhlddBNpmQD-46" value="" style="endArrow=classic;html=1;rounded=0;dashed=1;" edge="1" parent="1">
          <mxGeometry width="50" height="50" relative="1" as="geometry">
            <mxPoint x="528.5000000000002" y="979" as="sourcePoint" />
            <mxPoint x="319" y="979" as="targetPoint" />
          </mxGeometry>
        </mxCell>
        <mxCell id="RgWtKV6pRvhlddBNpmQD-47" value="11: Demande modifiee avec succes" style="text;html=1;align=center;verticalAlign=middle;resizable=0;points=[];autosize=1;strokeColor=none;fillColor=none;" vertex="1" parent="1">
          <mxGeometry x="316" y="973" width="210" height="30" as="geometry" />
        </mxCell>
        <mxCell id="RgWtKV6pRvhlddBNpmQD-53" value="8: Modifier demande" style="html=1;verticalAlign=bottom;endArrow=block;edgeStyle=elbowEdgeStyle;elbow=vertical;curved=0;rounded=0;" edge="1" parent="1">
          <mxGeometry relative="1" as="geometry">
            <mxPoint x="690" y="897" as="sourcePoint" />
            <Array as="points">
              <mxPoint x="757" y="897" />
            </Array>
            <mxPoint x="847" y="897" as="targetPoint" />
          </mxGeometry>
        </mxCell>
        <mxCell id="RgWtKV6pRvhlddBNpmQD-55" value="9: Confirmer la modification" style="text;html=1;align=center;verticalAlign=middle;resizable=0;points=[];autosize=1;strokeColor=none;fillColor=none;" vertex="1" parent="1">
          <mxGeometry x="687" y="913" width="170" height="30" as="geometry" />
        </mxCell>
        <mxCell id="RgWtKV6pRvhlddBNpmQD-56" value="" style="rounded=0;whiteSpace=wrap;html=1;" vertex="1" parent="1">
          <mxGeometry x="846" y="897" width="10" height="40" as="geometry" />
        </mxCell>
        <mxCell id="RgWtKV6pRvhlddBNpmQD-57" value="" style="endArrow=classic;html=1;rounded=0;exitX=0;exitY=1;exitDx=0;exitDy=0;dashed=1;" edge="1" parent="1" source="RgWtKV6pRvhlddBNpmQD-56">
          <mxGeometry width="50" height="50" relative="1" as="geometry">
            <mxPoint x="660" y="937" as="sourcePoint" />
            <mxPoint x="689.590909090909" y="937" as="targetPoint" />
          </mxGeometry>
        </mxCell>
        <mxCell id="RgWtKV6pRvhlddBNpmQD-58" value="7:Confirmer modification" style="html=1;verticalAlign=bottom;endArrow=block;edgeStyle=elbowEdgeStyle;elbow=vertical;curved=0;rounded=0;" edge="1" parent="1">
          <mxGeometry relative="1" as="geometry">
            <mxPoint x="530" y="854" as="sourcePoint" />
            <Array as="points">
              <mxPoint x="597" y="854" />
            </Array>
            <mxPoint x="687" y="854" as="targetPoint" />
          </mxGeometry>
        </mxCell>
        <mxCell id="RgWtKV6pRvhlddBNpmQD-59" value="" style="rounded=0;whiteSpace=wrap;html=1;" vertex="1" parent="1">
          <mxGeometry x="686" y="854" width="10" height="40" as="geometry" />
        </mxCell>
        <mxCell id="RgWtKV6pRvhlddBNpmQD-60" value="10: message de confirmation" style="text;html=1;align=center;verticalAlign=middle;resizable=0;points=[];autosize=1;strokeColor=none;fillColor=none;" vertex="1" parent="1">
          <mxGeometry x="523" y="937" width="180" height="30" as="geometry" />
        </mxCell>
        <mxCell id="RgWtKV6pRvhlddBNpmQD-61" value="" style="endArrow=classic;html=1;rounded=0;exitX=0;exitY=1;exitDx=0;exitDy=0;dashed=1;" edge="1" parent="1">
          <mxGeometry width="50" height="50" relative="1" as="geometry">
            <mxPoint x="688" y="961" as="sourcePoint" />
            <mxPoint x="531.590909090909" y="961" as="targetPoint" />
          </mxGeometry>
        </mxCell>
        <mxCell id="RgWtKV6pRvhlddBNpmQD-65" value="alt" style="shape=umlFrame;whiteSpace=wrap;html=1;pointerEvents=0;" vertex="1" parent="1">
          <mxGeometry x="206" y="380" width="808" height="700" as="geometry" />
        </mxCell>
        <mxCell id="RgWtKV6pRvhlddBNpmQD-66" value="[Status= Instantanée]" style="text;html=1;align=center;verticalAlign=middle;resizable=0;points=[];autosize=1;strokeColor=none;fillColor=none;" vertex="1" parent="1">
          <mxGeometry x="250" y="400" width="140" height="30" as="geometry" />
        </mxCell>
      </root>
    </mxGraphModel>
  </diagram>
</mxfile>
